# xmcd CD database file
# Copyright (C) 1995-1998 Ti Kan
#
# Track frame offsets:
#	150
#	17450
#	34140
#	51813
#	68769
#	85662
#	103581
#	120108
#	134920
#	152563
#	168457
#	189319
#	207876
#	224843
#	243138
#	260246
#	275173
#	290759
#	307895
#	319722
#
# Disc length: 4503 seconds
#
# Revision: 1
# Processed by: cddbd v1.5.1PL0 Copyright (c) Steve Scherf et al.
# Submitted via: CDex 1.30Release
#
DISCID=24119514
DTITLE=Mato Grosso e Mathias - O Melhor de Mato Grosso e Mathias
DYEAR=2005
DGENRE=Country
TTITLE0=Só Fazendo Amor
TTITLE1=A Mais Louca Paixão
TTITLE2=A Primeira Vez Que Eu Te Vi
TTITLE3=Boate Azul
TTITLE4=Coração Congelado
TTITLE5=De Igual Pra Igual
TTITLE6=Dentro do Coraçâo
TTITLE7=Enquanto o Sol Brilhar
TTITLE8=Porque
TTITLE9=Duas Caras
TTITLE10=Mistério
TTITLE11=Rumos do Coração
TTITLE12=Idas e Voltas
TTITLE13=Pele de Maça
TTITLE14=frente a Frente
TTITLE15=Sábado
TTITLE16=24 Horas de Amor 
TTITLE17=Na Hora do Adeus
TTITLE18=Espinhos da Vida
TTITLE19=Tentei te Esquecer
EXTD=YEAR: 2005 ID3G:   2
EXTT0=
EXTT1=
EXTT2=
EXTT3=
EXTT4=
EXTT5=
EXTT6=
EXTT7=
EXTT8=
EXTT9=
EXTT10=
EXTT11=
EXTT12=
EXTT13=
EXTT14=
EXTT15=
EXTT16=
EXTT17=
EXTT18=
EXTT19=
PLAYORDER=
